<svg viewBox="0 0 800 800" xmlns="http://www.w3.org/2000/svg"><path d="M678.8752921444589,505.3434786277344 L678.8576281989111,472.0229861674178 M625.8490049019914,619.5992165024874 L625.8254171007934,586.2660923513814 M678.8752921444589,505.3434786277344 L701.7104177205626,510.6629477088451 M701.7104177205626,510.6629477088451 L721.6810819320901,518.9916568435873 M721.6810819320901,518.9916568435873 L737.6271836502208,529.84652373163 M737.6271836502208,529.84652373163 L748.621777325603,542.5976181090145 M748.621777325603,542.5976181090145 L754.0248475080057,556.5046613028206 M754.0248475080057,556.5046613028206 L753.5209006519519,570.7598182000916 M753.5209006519519,570.7598182000916 L747.1376623569021,584.5346016804938 M747.1376623569021,584.5346016804938 L735.2445663832971,597.0280149703877 M735.2445663832971,597.0280149703877 L718.5319705206495,607.5131534883574 M718.5319705206495,607.5131534883574 L697.9710294812146,615.3797282649275 M697.9710294812146,615.3797282649275 L674.7573075924188,620.1696783012042 M674.7573075924188,620.1696783012042 L650.2411831535712,621.6040023074711 M650.2411831535712,621.6040023074711 L625.8490049019914,619.5992165024874 M678.8576281989111,472.0229861674178 L701.6952965482158,477.341866717799 M701.6952965482158,477.341866717799 L721.6681843967522,485.6696544725032 M721.6681843967522,485.6696544725032 L737.616061502011,496.5233206737752 M737.616061502011,496.5233206737752 L748.6118790820691,509.273004840765 M748.6118790820691,509.273004840765 L754.0155503306976,523.1785102568034 M754.0155503306976,523.1785102568034 L753.5115464392809,537.4320911813338 M753.5115464392809,537.4320911813338 L747.1275959645993,551.2053520829448 M747.1275959645993,551.2053520829448 L735.2331737261868,563.6973846722232 M735.2331737261868,563.6973846722232 L718.5187144011276,574.1813646113853 M718.5187144011276,574.1813646113853 L697.9554809711774,582.0470702603117 M697.9554809711774,582.0470702603117 L674.7391711322686,586.8364911305575 M674.7391711322686,586.8364911305575 L650.2203138711454,588.2706566876116 M650.2203138711454,588.2706566876116 L625.8254171007934,586.2660923513814 M678.8752921444589,505.3434786277344 L592.4589364422262,487.84174801409654 M592.4589364422262,487.84174801409654 L511.55101726513243,463.08781450259244 M511.55101726513243,463.08781450259244 L437.9669219532603,431.64149959019676 M437.9669219532603,431.64149959019676 L373.3546271373247,394.2131615120361 M373.3546271373247,394.2131615120361 L319.15741453554335,351.6471608339576 M319.15741453554335,351.6471608339576 L276.58165500924855,304.90226935665623 M276.58165500924855,304.90226935665623 L246.57031842279545,255.02949142781955 M246.57031842279545,255.02949142781955 L246.50461538763173,221.7367404622342 M246.50461538763173,221.7367404622342 L276.5192682141885,271.60398373440205 M276.5192682141885,271.60398373440205 L319.0997453897921,318.3436910247518 M319.0997453897921,318.3436910247518 L373.30297347500533,360.90497379143744 M373.30297347500533,360.90497379143744 L437.92244819293353,398.32916562560774 M437.92244819293353,398.32916562560774 L511.5147274542908,429.7719985787443 M511.5147274542908,429.7719985787443 L592.4316508793913,454.5231921911625 M592.4316508793913,454.5231921911625 L678.8576281989111,472.0229861674178 M625.8254171007934,586.2660923513814 L524.5785093802843,566.3617836420929 M524.5785093802843,566.3617836420929 L428.73175574561486,538.9828272933578 M428.73175574561486,538.9828272933578 L339.9354992020757,504.60558740714 M339.9354992020757,504.60558740714 L259.7156663994094,463.8273852002409 M259.7156663994094,463.8273852002409 L189.4469586930324,417.35579577432 M189.4469586930324,417.35579577432 L130.32942611139896,365.9957345234834 M130.32942611139896,365.9957345234834 L83.36786875881495,310.63515135443174 M83.36786875881495,310.63515135443174 L49.355359402998204,252.22906667234116 M49.442999114669306,285.5252023532504 L49.355359402998204,252.22906667234116 M49.442999114669306,285.5252023532504 L83.45175890868188,343.9377663856395 M83.45175890868188,343.9377663856395 L130.40812107649134,399.30448637404913 M130.40812107649134,399.30448637404913 L189.51909940238096,450.67023691112786 M189.51909940238096,450.67023691112786 L259.7800044317892,497.1469707403504 M259.7800044317892,497.1469707403504 L339.9909191230656,537.9296844521225 M339.9909191230656,537.9296844521225 L428.7772951817478,572.3107257538453 M428.7772951817478,572.3107257538453 L524.6133764701443,599.6927083969731 M524.6133764701443,599.6927083969731 L625.8490049019914,619.5992165024874 M49.442999114669306,285.5252023532504 L46.063159829380595,271.46213268054817 M46.063159829380595,271.46213268054817 L48.6085401466608,257.33279347623227 M48.6085401466608,257.33279347623227 L56.929717847302186,243.95810926451588 M56.929717847302186,243.95810926451588 L70.54178943466883,232.11477088921163 M70.54178943466883,232.11477088921163 L88.65302168261229,222.49019324751657 M88.65302168261229,222.49019324751657 L110.21102656875678,215.64278458203256 M110.21102656875678,215.64278458203256 L133.96376430945725,211.96972262295486 M133.96376430945725,211.96972262295486 L158.53226796874583,211.6839353652485 M158.53226796874583,211.6839353652485 L182.4903574889516,214.80204159310557 M182.4903574889516,214.80204159310557 L204.44712458239337,221.1432344165836 M204.44712458239337,221.1432344165836 L223.12751462587886,230.3397085863989 M223.12751462587886,230.3397085863989 L237.44610692940313,241.8579609048562 M237.44610692940313,241.8579609048562 L246.57031842279545,255.02949142781955 M49.355359402998204,252.22906667234116 L45.97515249199438,238.1675576866068 M45.97515249199438,238.1675576866068 L48.52082413617495,224.03978681924775 M48.52082413617495,224.03978681924775 L56.84293484091313,210.6665874517687 M56.84293484091313,210.6665874517687 L70.4565266009908,198.82456413379464 M70.4565266009908,198.82456413379464 L88.56977770083444,189.20105533659097 M88.56977770083444,189.20105533659097 L110.13018282455414,182.35440718452793 M110.13018282455414,182.35440718452793 L133.88556288634243,178.6817532059539 M133.88556288634243,178.6817532059539 L158.4567977083188,178.39599769252897 M158.4567977083188,178.39599769252897 L182.4175488732766,181.5137575782507 M182.4175488732766,181.5137575782507 L204.3767537336919,187.8542461013194 M204.3767537336919,187.8542461013194 L223.05921621139854,197.0496989477943 M223.05921621139854,197.0496989477943 L237.37939522646664,208.5666722726197 M237.37939522646664,208.5666722726197 L246.50461538763173,221.7367404622342" stroke="black"  stroke-width="4"  fill="red"/></svg>